<svg width="32" height="30" viewBox="0 0 32 30" fill="none" xmlns="http://www.w3.org/2000/svg">
<path d="M6 2V11.172L20 25.172L29.172 16L15.172 2H6ZM4 2C4 1.46957 4.21071 0.960859 4.58579 0.585786C4.96086 0.210714 5.46957 0 6 0H15.172C15.7024 0.000113275 16.211 0.210901 16.586 0.586L30.586 14.586C30.9609 14.9611 31.1716 15.4697 31.1716 16C31.1716 16.5303 30.9609 17.0389 30.586 17.414L21.414 26.586C21.0389 26.9609 20.5303 27.1716 20 27.1716C19.4697 27.1716 18.9611 26.9609 18.586 26.586L4.586 12.586C4.2109 12.211 4.00011 11.7024 4 11.172V2Z" fill="#8EC1D6"/>
<path d="M11 8C10.7348 8 10.4804 7.89464 10.2929 7.70711C10.1054 7.51957 10 7.26522 10 7C10 6.73478 10.1054 6.48043 10.2929 6.29289C10.4804 6.10536 10.7348 6 11 6C11.2652 6 11.5196 6.10536 11.7071 6.29289C11.8946 6.48043 12 6.73478 12 7C12 7.26522 11.8946 7.51957 11.7071 7.70711C11.5196 7.89464 11.2652 8 11 8ZM11 10C11.7956 10 12.5587 9.68393 13.1213 9.12132C13.6839 8.55871 14 7.79565 14 7C14 6.20435 13.6839 5.44129 13.1213 4.87868C12.5587 4.31607 11.7956 4 11 4C10.2044 4 9.44129 4.31607 8.87868 4.87868C8.31607 5.44129 8 6.20435 8 7C8 7.79565 8.31607 8.55871 8.87868 9.12132C9.44129 9.68393 10.2044 10 11 10ZM2 12.172C2.00011 12.7024 2.2109 13.211 2.586 13.586L17.5 28.5L17.414 28.586C17.0389 28.9609 16.5303 29.1716 16 29.1716C15.4697 29.1716 14.9611 28.9609 14.586 28.586L0.586 14.586C0.210901 14.211 0.000113275 13.7024 0 13.172L0 4C0 3.46957 0.210714 2.96086 0.585786 2.58579C0.960859 2.21071 1.46957 2 2 2V12.172Z" fill="#8EC1D6"/>
</svg>
