<svg width="30" height="28" viewBox="0 0 30 28" fill="none" xmlns="http://www.w3.org/2000/svg">
<path d="M16.414 1C16.039 0.62506 15.5304 0.414429 15 0.414429C14.4697 0.414429 13.9611 0.62506 13.586 1L0.292043 14.292C0.199067 14.385 0.125314 14.4954 0.0749959 14.6168C0.0246777 14.7383 -0.0012207 14.8685 -0.0012207 15C-0.0012207 15.1315 0.0246777 15.2617 0.0749959 15.3832C0.125314 15.5046 0.199067 15.615 0.292043 15.708C0.479816 15.8958 0.734491 16.0013 1.00004 16.0013C1.13153 16.0013 1.26173 15.9754 1.38321 15.925C1.50469 15.8747 1.61507 15.801 1.70804 15.708L15 2.414L28.292 15.708C28.4798 15.8958 28.7345 16.0013 29 16.0013C29.2656 16.0013 29.5203 15.8958 29.708 15.708C29.8958 15.5202 30.0013 15.2656 30.0013 15C30.0013 14.7345 29.8958 14.4798 29.708 14.292L25 9.586V3C25 2.73479 24.8947 2.48043 24.7071 2.2929C24.5196 2.10536 24.2653 2 24 2H22C21.7348 2 21.4805 2.10536 21.2929 2.2929C21.1054 2.48043 21 2.73479 21 3V5.586L16.414 1Z" fill="#8EC1D6"/>
<path d="M15 4.586L27 16.586V25C27 25.7956 26.6839 26.5587 26.1213 27.1213C25.5587 27.6839 24.7956 28 24 28H6C5.20435 28 4.44129 27.6839 3.87868 27.1213C3.31607 26.5587 3 25.7956 3 25V16.586L15 4.586Z" fill="#8EC1D6"/>
</svg>
