<svg width="26" height="26" viewBox="0 0 26 26" fill="none" xmlns="http://www.w3.org/2000/svg">
<path d="M25.4884 12.2495C25.4884 5.57375 20.4282 0.927498 13.1539 0.927498C5.61644 0.927498 0.450439 6.143 0.450439 13.757C0.450439 21.6162 5.47919 26.6 13.4149 26.6C15.3544 26.6 17.2152 26.3232 18.5989 25.8462V23.9067C17.6314 24.3545 15.5524 24.6447 13.4464 24.6447C6.86294 24.6447 2.61719 20.4147 2.61719 13.8492C2.61719 7.45025 6.93944 2.867 12.9537 2.867C19.1074 2.867 23.3217 6.665 23.3217 12.218C23.3217 16.0025 22.0752 18.4482 20.1357 18.4482C19.0287 18.4482 18.3987 17.8182 18.3987 16.7382V7.7135H16.0767V9.59H15.8292C15.2307 8.25125 13.8469 7.421 12.2292 7.421C9.07919 7.421 6.87869 10.0355 6.87869 13.7727C6.87869 17.681 9.03194 20.3112 12.2314 20.3112C14.0314 20.3112 15.4152 19.4337 16.0767 17.8655H16.3242C16.5064 19.373 17.9059 20.4485 19.7059 20.4485C23.2429 20.4485 25.4884 17.2625 25.4884 12.2495ZM9.34019 13.8335C9.34019 11.1402 10.5552 9.54275 12.6162 9.54275C14.7087 9.54275 16.0452 11.2032 16.0452 13.8335C16.0452 16.4637 14.6929 18.14 12.5847 18.14C10.5709 18.14 9.34019 16.5087 9.34019 13.8335Z" fill="#8EC1D6"/>
</svg>
