<svg width="22" height="28" viewBox="0 0 22 28" fill="none" xmlns="http://www.w3.org/2000/svg">
<path fill-rule="evenodd" clip-rule="evenodd" d="M21 28C20.7347 28 20.4804 27.8946 20.2928 27.7071C20.1053 27.5196 20 27.2652 20 27V1C20 0.734784 20.1053 0.48043 20.2928 0.292893C20.4804 0.105357 20.7347 0 21 0C21.2652 0 21.5195 0.105357 21.7071 0.292893C21.8946 0.48043 22 0.734784 22 1V27C22 27.2652 21.8946 27.5196 21.7071 27.7071C21.5195 27.8946 21.2652 28 21 28ZM16 14C16 14.2652 15.8946 14.5196 15.7071 14.7071C15.5195 14.8946 15.2652 15 15 15H3.41396L7.70796 19.292C7.80093 19.385 7.87469 19.4954 7.925 19.6168C7.97532 19.7383 8.00122 19.8685 8.00122 20C8.00122 20.1315 7.97532 20.2617 7.925 20.3832C7.87469 20.5046 7.80093 20.615 7.70796 20.708C7.61498 20.801 7.5046 20.8747 7.38312 20.925C7.26164 20.9754 7.13144 21.0013 6.99996 21.0013C6.86847 21.0013 6.73827 20.9754 6.61679 20.925C6.49531 20.8747 6.38493 20.801 6.29196 20.708L0.291956 14.708C0.19883 14.6151 0.124944 14.5048 0.0745316 14.3833C0.0241187 14.2618 -0.00183105 14.1315 -0.00183105 14C-0.00183105 13.8685 0.0241187 13.7382 0.0745316 13.6167C0.124944 13.4952 0.19883 13.3849 0.291956 13.292L6.29196 7.292C6.47973 7.10423 6.73441 6.99874 6.99996 6.99874C7.26551 6.99874 7.52018 7.10423 7.70796 7.292C7.89573 7.47977 8.00122 7.73445 8.00122 8C8.00122 8.26555 7.89573 8.52023 7.70796 8.708L3.41396 13H15C15.2652 13 15.5195 13.1054 15.7071 13.2929C15.8946 13.4804 16 13.7348 16 14Z" fill="#8EC1D6"/>
</svg>
