<svg width="32" height="33" viewBox="0 0 32 33" fill="none" xmlns="http://www.w3.org/2000/svg">
<path fill-rule="evenodd" clip-rule="evenodd" d="M6 16.5C6 16.2265 6.10536 15.9642 6.29289 15.7708C6.48043 15.5774 6.73478 15.4688 7 15.4688H20.586L16.292 11.0426C16.1042 10.849 15.9987 10.5864 15.9987 10.3125C15.9987 10.0387 16.1042 9.77602 16.292 9.58238C16.4798 9.38874 16.7344 9.27995 17 9.27995C17.2656 9.27995 17.5202 9.38874 17.708 9.58238L23.708 15.7699C23.8011 15.8657 23.875 15.9795 23.9254 16.1048C23.9758 16.23 24.0018 16.3644 24.0018 16.5C24.0018 16.6357 23.9758 16.77 23.9254 16.8952C23.875 17.0205 23.8011 17.1343 23.708 17.2301L17.708 23.4176C17.5202 23.6113 17.2656 23.7201 17 23.7201C16.7344 23.7201 16.4798 23.6113 16.292 23.4176C16.1042 23.224 15.9987 22.9614 15.9987 22.6875C15.9987 22.4137 16.1042 22.151 16.292 21.9574L20.586 17.5313H7C6.73478 17.5313 6.48043 17.4226 6.29289 17.2292C6.10536 17.0358 6 16.7735 6 16.5Z" fill="#8EC1D6"/>
<path fill-rule="evenodd" clip-rule="evenodd" d="M25 8.25C25.2652 8.25 25.5196 8.35865 25.7071 8.55205C25.8946 8.74544 26 9.00775 26 9.28125V23.7188C26 23.9923 25.8946 24.2546 25.7071 24.448C25.5196 24.6414 25.2652 24.75 25 24.75C24.7348 24.75 24.4804 24.6414 24.2929 24.448C24.1054 24.2546 24 23.9923 24 23.7188V9.28125C24 9.00775 24.1054 8.74544 24.2929 8.55205C24.4804 8.35865 24.7348 8.25 25 8.25Z" fill="#8EC1D6"/>
</svg>
