<svg width="44" height="41" viewBox="0 0 44 41" fill="none" xmlns="http://www.w3.org/2000/svg">
<path fill-rule="evenodd" clip-rule="evenodd" d="M31.2235 4.21788C31.3516 4.33689 31.4532 4.47828 31.5225 4.63394C31.5918 4.7896 31.6275 4.95647 31.6275 5.125C31.6275 5.29353 31.5918 5.4604 31.5225 5.61606C31.4532 5.77172 31.3516 5.91311 31.2235 6.03213L15.6943 20.5L31.2235 34.9679C31.4817 35.2085 31.6268 35.5348 31.6268 35.875C31.6268 36.2152 31.4817 36.5415 31.2235 36.7821C30.9653 37.0227 30.6151 37.1579 30.25 37.1579C29.8849 37.1579 29.5347 37.0227 29.2765 36.7821L12.7765 21.4071C12.6485 21.2881 12.5469 21.1467 12.4776 20.9911C12.4082 20.8354 12.3726 20.6685 12.3726 20.5C12.3726 20.3315 12.4082 20.1646 12.4776 20.0089C12.5469 19.8533 12.6485 19.7119 12.7765 19.5929L29.2765 4.21788C29.4042 4.09856 29.556 4.00389 29.723 3.9393C29.8901 3.87471 30.0692 3.84146 30.25 3.84146C30.4309 3.84146 30.61 3.87471 30.777 3.9393C30.9441 4.00389 31.0958 4.09856 31.2235 4.21788Z" fill="white"/>
</svg>
