<svg width="52" height="51" viewBox="0 0 52 51" fill="none" xmlns="http://www.w3.org/2000/svg">
<path d="M10.7519 0.0297794C9.72429 0.215057 8.57884 0.868159 7.27904 2.01225C6.77943 2.45228 5.69491 3.70753 5.19936 4.42085C4.74849 5.06932 3.56242 6.92673 3.5868 6.94525C3.59492 6.95452 3.6721 7.01936 3.75739 7.08884C3.84269 7.16295 3.92799 7.20001 3.94424 7.18148C3.96049 7.15832 4.33824 6.63955 4.78099 6.03276C5.95893 4.41622 6.4626 3.8048 7.26279 3.01274C8.5301 1.75749 9.78522 1.14144 11.081 1.14144C11.9827 1.14144 12.925 1.47957 13.7577 2.10489C13.9161 2.22532 14.3101 2.62366 14.6392 2.99422C14.9641 3.36477 15.3337 3.73532 15.4556 3.8187C15.7277 4.00861 16.008 4.05956 16.4467 3.99934C16.9991 3.92987 18.368 3.98545 18.8473 4.10125C20.0415 4.38843 21.0082 4.96279 21.849 5.87991L22.1374 6.19951L22.243 6.12077C22.2999 6.07445 22.3486 6.0235 22.3486 6.00034C22.3486 5.93086 22.0968 5.48619 21.8124 5.04616C21.1788 4.07809 20.3989 3.52226 19.3144 3.27676C18.7863 3.15633 18.1405 3.08685 17.5393 3.08685C17.2672 3.08685 16.8976 3.07296 16.7107 3.05443L16.3776 3.02664L16.2477 2.74872C16.0446 2.31332 15.809 2.05857 15.1591 1.56295C14.1761 0.817208 13.2703 0.335487 12.4376 0.117786C12.0355 0.0112519 11.1216 -0.0350676 10.7519 0.0297794Z" fill="white"/>
<path d="M13.1196 2.77188C13.0018 2.80894 12.9043 2.90157 12.6891 3.19339C12.5388 3.40182 12.4007 3.59636 12.3844 3.62879C12.3682 3.66121 12.4088 3.72606 12.4819 3.78627L12.6119 3.88818L12.8475 3.59636C13.079 3.31382 13.0912 3.30455 13.2537 3.33234C13.4892 3.3694 13.5502 3.51299 13.4527 3.8048C13.3999 3.96229 13.4811 4.18462 13.6517 4.35137C14.0701 4.74972 14.4478 4.10124 14.2123 3.38793C14.0254 2.8182 13.6517 2.60976 13.1196 2.77188Z" fill="white"/>
<path d="M17.9817 6.7044C17.6933 6.72293 17.3318 6.78778 17.0881 6.85726C16.8647 6.9221 16.6331 6.97769 16.5763 6.97769C16.5194 6.97769 16.3569 7.02401 16.2148 7.07959C15.8614 7.21392 15.638 7.47794 15.5243 7.89018C15.4796 8.05693 15.443 8.23757 15.443 8.29316C15.443 8.34874 15.3699 8.64518 15.2805 8.94626C15.1709 9.31218 15.1303 9.51135 15.1587 9.54378C15.2074 9.59936 15.1912 9.61789 15.5649 9.04353C15.7273 8.78877 15.9467 8.47843 16.0482 8.35337C16.3976 7.9226 17.4008 7.44551 19.0987 6.89431C19.2734 6.83873 19.3668 6.78315 19.3749 6.7322C19.3871 6.66272 19.3424 6.65345 18.9281 6.66272C18.6763 6.66272 18.2498 6.68588 17.9817 6.7044Z" fill="white"/>
<path d="M14.2082 10.4655L14.0498 10.8037L14.1635 11.0492C14.3423 11.4243 14.7241 11.7995 15.1871 12.0589C15.898 12.4526 17.6121 13.8191 18.8266 14.9539C20.5407 16.5612 21.9745 18.1268 25.2525 21.9852C26.7513 23.7499 29.6555 27.0386 30.74 28.1966C33.2747 30.9109 36.1992 33.4909 39.3675 35.8115C41.0003 37.0111 41.9305 37.6411 42.0686 37.6411C42.223 37.6411 42.3733 37.5253 42.3733 37.4095C42.3733 37.1871 42.2758 37.0806 41.7883 36.7749C40.3179 35.8578 38.7094 34.6257 37.235 33.2917C35.3137 31.5547 33.5834 29.7251 30.7157 26.3809C29.7449 25.2507 28.3801 23.6665 27.6896 22.8652C26.995 22.0639 25.9795 20.8642 25.4352 20.2019C22.5879 16.7464 20.7803 14.9076 18.6357 13.2771C17.6567 12.536 17.0353 12.133 16.5519 11.9292C15.0368 11.2947 14.7769 11.1001 14.4804 10.4007L14.3666 10.1274L14.2082 10.4655Z" fill="white"/>
<path d="M2.46931 11.3734C1.78285 12.4758 1.34417 13.2632 1.05578 13.9071C0.747076 14.5879 0.657715 14.9168 0.657715 15.3615C0.657715 15.7135 0.787695 16.3759 0.86487 16.4315C0.897365 16.4546 0.990788 16.4731 1.07609 16.4731C1.19794 16.4731 1.27918 16.4268 1.4904 16.2415C1.87221 15.8988 2.37995 15.0882 2.35558 14.8612C2.34339 14.7547 2.32308 14.7362 2.19716 14.7223C2.05906 14.7084 2.03063 14.7315 1.65287 15.1947C1.43759 15.468 1.23856 15.6857 1.21419 15.6857C1.02328 15.6857 1.61632 14.1155 2.41244 12.5128C2.60335 12.1284 2.85925 11.605 2.98517 11.341L3.21263 10.8685L3.05422 10.7759L2.89581 10.6832L2.46931 11.3734Z" fill="white"/>
<path d="M8.35531 11.5448C8.31063 11.5587 8.17252 11.5957 8.05066 11.6328C7.81914 11.6976 7.2586 12.0358 6.78742 12.4017C4.61838 14.0645 3.62322 16.538 3.82225 19.7757C3.87912 20.7577 3.91568 20.9569 4.2325 22.0315C5.00426 24.6578 5.97911 26.5754 7.31953 28.0993C8.31062 29.2295 9.82977 30.4338 11.1986 31.1703C16.1257 33.8197 19.4889 35.1352 22.6937 35.654C23.0309 35.7049 23.4127 35.7929 23.5427 35.8439C23.8554 35.9597 24.1682 36.1959 24.3956 36.4877C24.5947 36.7425 24.6312 36.7425 24.8221 36.5109L24.9196 36.3904L24.7693 36.1311C24.3835 35.4733 23.8189 35.0565 23.0999 34.9082C20.7115 34.4219 17.0965 33.1805 14.4887 31.9531C11.4992 30.545 9.56981 29.2387 8.11565 27.6361C7.76227 27.247 7.5998 27.0201 7.29922 26.5013C6.23501 24.6531 5.54043 22.6892 5.3089 20.855C5.21954 20.1648 5.21954 18.9929 5.3089 18.3722C5.60135 16.3157 6.68181 14.6065 8.45685 13.3929C9.02958 13.0038 9.38702 12.6055 9.48044 12.2535C9.517 12.1099 9.51294 12.0543 9.44795 11.9061C9.33422 11.642 9.15956 11.5494 8.76555 11.5355C8.58277 11.5262 8.39999 11.5309 8.35531 11.5448Z" fill="white"/>
<path d="M1.76692 16.1396C0.962664 17.0521 0.605219 18.0202 0.186846 20.4334L0 21.4942L0.109671 21.6007C0.219341 21.7119 0.308702 21.698 0.402126 21.559C0.422435 21.5266 0.479301 21.2162 0.528044 20.8688C0.670209 19.8591 0.938293 18.9327 1.38104 17.9276C1.6085 17.4134 2.06749 16.5102 2.30308 16.1119C2.35995 16.0192 2.40463 15.9312 2.40463 15.9127C2.40463 15.8756 2.21372 15.7784 2.14061 15.7784C2.11217 15.7784 1.94158 15.9405 1.76692 16.1396Z" fill="white"/>
<path d="M1.87287 18.8632C1.82819 18.9234 1.816 19.0856 1.82412 19.5488C1.83631 20.8179 2.11252 21.8462 2.71368 22.8976C2.98988 23.384 3.1483 23.6249 3.84694 24.6022C4.13533 25.0098 4.48465 25.5286 4.61869 25.7509C4.85022 26.1446 4.86241 26.1585 5.00457 26.1446C5.26453 26.1215 5.22798 25.9825 4.71618 25.1071C4.00941 23.8981 3.52605 22.9671 3.13611 22.0546C2.69337 21.031 2.51871 20.4937 2.33592 19.6229C2.25468 19.2523 2.17751 18.9188 2.16126 18.8818C2.12064 18.7799 1.94192 18.7706 1.87287 18.8632Z" fill="white"/>
<path d="M16.7389 37.9699C16.6902 38.0255 16.617 38.1645 16.5683 38.2849C16.4464 38.586 16.4302 39.3734 16.5277 39.8829C16.5927 40.2164 16.613 40.2627 16.7348 40.3415C16.8404 40.4156 16.8892 40.4202 16.9664 40.3832C17.072 40.3276 17.0842 40.2164 17.1329 38.8361L17.1573 38.1089L17.0517 37.9931C16.9257 37.8495 16.8526 37.8402 16.7389 37.9699Z" fill="white"/>
<path d="M38.4412 38.4378C38.299 38.5999 38.4331 38.7944 39.6516 40.2072C41.1139 41.9025 42.3 43.0836 45.2976 45.8396C46.0003 46.4881 46.8777 47.2986 47.2473 47.646C48.1247 48.4705 48.5715 48.8503 49.2377 49.3367C49.9404 49.8462 50.1841 49.9389 50.8218 49.9389C51.232 49.9389 51.3133 49.925 51.4879 49.8277C51.7845 49.6609 51.9997 49.3877 51.9997 49.1838C51.9997 49.0495 51.9672 48.9847 51.8291 48.8365C51.6626 48.6558 51.6423 48.6512 51.3701 48.6419C50.8015 48.628 50.7446 48.5863 48.08 46.2518C46.7599 45.0985 44.5056 43.1253 43.0636 41.8654C41.6216 40.6009 40.3625 39.4938 40.2609 39.4012C39.9563 39.1187 39.611 38.8685 39.1764 38.6184C38.758 38.3822 38.5387 38.3266 38.4412 38.4378Z" fill="white"/>
<path d="M16.7307 41.1521C16.6089 41.2493 15.6625 42.6806 15.2278 43.431C15.0735 43.6996 14.8501 44.1489 14.7282 44.4315C14.5251 44.9086 14.4967 44.9549 14.3139 45.0661C13.5828 45.52 12.5754 45.7933 10.4673 46.1175C9.68745 46.2379 9.50873 46.2796 9.38687 46.3676C9.18784 46.5205 9.0213 46.7197 8.92788 46.9142L8.8507 47.0763L8.48107 47.0809C8.27798 47.0809 7.9774 47.118 7.81087 47.1551C7.55903 47.2153 7.47779 47.2616 7.29095 47.4422C7.16909 47.5627 7.00661 47.7665 6.9335 47.8962C6.77509 48.1741 6.60043 48.8689 6.56387 49.3738C6.5395 49.6841 6.54356 49.7258 6.6248 49.8184C6.80352 50.0222 6.8807 49.9064 7.04723 49.1792C7.14066 48.7762 7.22189 48.5215 7.27876 48.4613C7.34781 48.3779 7.42905 48.3594 7.77837 48.3362C8.05864 48.3177 8.23736 48.2852 8.33485 48.225C8.58262 48.0814 8.98475 47.6831 9.26908 47.294L9.54529 46.9188L10.0449 46.891C10.317 46.8725 10.6907 46.8586 10.8695 46.8632C11.166 46.8679 11.1822 46.8725 11.0441 46.9142C10.9263 46.9513 10.8167 47.0624 10.5242 47.4376C10.1139 47.9703 10.1708 47.9332 9.45999 48.0675C9.16753 48.1231 9.13097 48.1417 8.98475 48.3223C8.81009 48.54 8.38765 49.4571 8.25361 49.9157C8.13581 50.3187 8.13175 50.7263 8.24955 50.856C8.38359 51.0135 8.45264 50.9208 8.68417 50.2816C8.94007 49.5637 9.07411 49.3135 9.20409 49.3135C9.35438 49.3135 9.74026 49.1468 9.93116 48.9939C10.1708 48.8087 10.4998 48.3779 10.6298 48.0722C10.6339 48.0675 10.9751 48.012 11.3853 47.9517C12.2221 47.8267 12.5673 47.7387 12.8638 47.5673C13.2091 47.3728 13.3716 47.1504 13.4284 46.803L13.4569 46.6316L13.1807 46.6178L12.9045 46.6039L13.1279 46.5158C13.2497 46.4695 13.4041 46.3769 13.4691 46.3167C13.6193 46.1731 13.859 46.0388 14.4073 45.7933C14.8176 45.608 14.8826 45.5617 15.175 45.2421C15.8899 44.4593 16.5439 43.4866 16.9745 42.5648L17.1735 42.1387L17.1369 41.7774C17.0882 41.2818 17.076 41.2262 17.0029 41.1428C16.9216 41.0455 16.8688 41.0502 16.7307 41.1521Z" fill="white"/>
<path d="M17.0558 45.2235C17.0395 45.2374 17.0273 45.3301 17.0273 45.4273C17.0273 45.7006 17.2386 46.0202 17.5351 46.187C17.7747 46.3213 17.791 46.3259 18.5505 46.3491C19.4035 46.3769 19.5091 46.4093 19.5985 46.678C19.6473 46.8169 19.7732 46.9003 19.9722 46.9142C20.2443 46.9327 20.3581 46.9049 20.4474 46.7891C20.618 46.5622 20.8008 46.6409 21.5563 47.2477C21.8569 47.4932 22.1372 47.6923 22.1778 47.6923C22.2225 47.6923 22.2793 47.6599 22.3078 47.6229C22.4743 47.3959 21.9463 46.6177 21.3086 46.1499C20.9471 45.8813 20.7521 45.7933 20.5368 45.7933C20.3906 45.7933 20.3337 45.8257 20.1753 45.9785C20.0737 46.0804 19.9803 46.1638 19.9681 46.1638C19.9032 46.1638 19.7894 46.0573 19.7894 45.9971C19.7894 45.8674 19.6676 45.6543 19.5457 45.5848C19.3832 45.4875 19.107 45.4968 18.6277 45.6126C18.0388 45.7516 17.7016 45.6775 17.401 45.3301C17.2873 45.2004 17.1208 45.1494 17.0558 45.2235Z" fill="white"/>
</svg>
