<svg width="32" height="26" viewBox="0 0 32 26" fill="none" xmlns="http://www.w3.org/2000/svg">
<path fill-rule="evenodd" clip-rule="evenodd" d="M0.979309 24.188C0.979309 23.8233 1.12418 23.4735 1.38204 23.2157C1.6399 22.9578 1.98964 22.813 2.35431 22.813H29.8543C30.219 22.813 30.5687 22.9578 30.8266 23.2157C31.0844 23.4735 31.2293 23.8233 31.2293 24.188C31.2293 24.5526 31.0844 24.9024 30.8266 25.1602C30.5687 25.4181 30.219 25.563 29.8543 25.563H2.35431C1.98964 25.563 1.6399 25.4181 1.38204 25.1602C1.12418 24.9024 0.979309 24.5526 0.979309 24.188ZM0.979309 13.188C0.979309 12.8233 1.12418 12.4735 1.38204 12.2157C1.6399 11.9578 1.98964 11.813 2.35431 11.813H29.8543C30.219 11.813 30.5687 11.9578 30.8266 12.2157C31.0844 12.4735 31.2293 12.8233 31.2293 13.188C31.2293 13.5526 31.0844 13.9024 30.8266 14.1602C30.5687 14.4181 30.219 14.563 29.8543 14.563H2.35431C1.98964 14.563 1.6399 14.4181 1.38204 14.1602C1.12418 13.9024 0.979309 13.5526 0.979309 13.188ZM0.979309 2.18796C0.979309 1.82329 1.12418 1.47355 1.38204 1.21569C1.6399 0.957824 1.98964 0.812958 2.35431 0.812958H29.8543C30.219 0.812958 30.5687 0.957824 30.8266 1.21569C31.0844 1.47355 31.2293 1.82329 31.2293 2.18796C31.2293 2.55263 31.0844 2.90237 30.8266 3.16023C30.5687 3.41809 30.219 3.56296 29.8543 3.56296H2.35431C1.98964 3.56296 1.6399 3.41809 1.38204 3.16023C1.12418 2.90237 0.979309 2.55263 0.979309 2.18796Z" fill="white"/>
</svg>
