<svg width="118" height="118" viewBox="0 0 118 118" fill="none" xmlns="http://www.w3.org/2000/svg">
<rect width="118" height="118" rx="59" fill="#263141"/>
<path d="M39.4425 55.7569C40.0963 51.1683 42.3838 46.9696 45.8848 43.9322C49.3857 40.8947 53.865 39.2224 58.5 39.2224C63.135 39.2224 67.6143 40.8947 71.1152 43.9322C74.6162 46.9696 76.9037 51.1683 77.5575 55.7569C77.6077 56.0724 77.5946 56.3948 77.5189 56.7052C77.4432 57.0156 77.3064 57.3078 77.1166 57.5648C76.9267 57.8218 76.6876 58.0384 76.4132 58.2019C76.1387 58.3655 75.8344 58.4728 75.5181 58.5175C75.2017 58.5623 74.8796 58.5436 74.5706 58.4625C74.2615 58.3814 73.9717 58.2396 73.7181 58.0454C73.4644 57.8511 73.252 57.6083 73.0932 57.331C72.9344 57.0538 72.8324 56.7477 72.7931 56.4306C72.3027 52.9892 70.5871 49.8402 67.9614 47.5621C65.3357 45.284 61.9762 44.0298 58.5 44.0298C55.0238 44.0298 51.6643 45.284 49.0386 47.5621C46.4129 49.8402 44.6973 52.9892 44.2069 56.4306C44.1676 56.7477 44.0656 57.0538 43.9068 57.331C43.748 57.6083 43.5356 57.8511 43.2819 58.0454C43.0283 58.2396 42.7385 58.3814 42.4294 58.4625C42.1204 58.5436 41.7983 58.5623 41.4819 58.5175C41.1656 58.4728 40.8613 58.3655 40.5869 58.2019C40.3124 58.0384 40.0733 57.8218 39.8834 57.5648C39.6936 57.3078 39.5568 57.0156 39.4811 56.7052C39.4054 56.3948 39.3923 56.0724 39.4425 55.7569ZM39.25 65.7187C39.25 65.0806 39.5035 64.4685 39.9548 64.0173C40.406 63.566 41.0181 63.3125 41.6562 63.3125H75.3438C75.9819 63.3125 76.594 63.566 77.0452 64.0173C77.4965 64.4685 77.75 65.0806 77.75 65.7187V84.9687C77.75 85.6069 77.4965 86.219 77.0452 86.6702C76.594 87.1215 75.9819 87.375 75.3438 87.375H41.6562C41.0181 87.375 40.406 87.1215 39.9548 86.6702C39.5035 86.219 39.25 85.6069 39.25 84.9687V65.7187ZM44.0625 68.125V82.5625H72.9375V68.125H68.125V70.5312C68.125 71.1694 67.8715 71.7815 67.4202 72.2327C66.969 72.684 66.3569 72.9375 65.7188 72.9375C65.0806 72.9375 64.4685 72.684 64.0173 72.2327C63.566 71.7815 63.3125 71.1694 63.3125 70.5312V68.125H44.0625Z" fill="#8EC1D6"/>
<path d="M48.875 31.2661V29.625C48.875 27.0723 49.8891 24.6241 51.6941 22.8191C53.4991 21.0141 55.9473 20 58.5 20C61.0527 20 63.5009 21.0141 65.3059 22.8191C67.1109 24.6241 68.125 27.0723 68.125 29.625V31.2661C79.3381 35.2316 87.375 45.9298 87.375 58.5V84.9688C87.375 88.1596 86.1074 91.2198 83.8511 93.4761C81.5948 95.7324 78.5346 97 75.3438 97H41.6563C38.4654 97 35.4052 95.7324 33.1489 93.4761C30.8926 91.2198 29.625 88.1596 29.625 84.9688V58.5C29.6229 52.527 31.4731 46.7004 34.9207 41.8229C38.3683 36.9454 43.2436 33.257 48.875 31.2661ZM53.6875 29.625V30.0244C56.8732 29.4859 60.1268 29.4859 63.3125 30.0244V29.625C63.3125 28.3486 62.8055 27.1246 61.903 26.222C61.0004 25.3195 59.7764 24.8125 58.5 24.8125C57.2236 24.8125 55.9996 25.3195 55.0971 26.222C54.1945 27.1246 53.6875 28.3486 53.6875 29.625ZM58.5 34.4375C52.1182 34.4375 45.9978 36.9726 41.4852 41.4852C36.9727 45.9978 34.4375 52.1182 34.4375 58.5V84.9688C34.4375 86.8833 35.198 88.7194 36.5518 90.0732C37.9056 91.427 39.7417 92.1875 41.6563 92.1875H75.3438C77.2583 92.1875 79.0944 91.427 80.4482 90.0732C81.802 88.7194 82.5625 86.8833 82.5625 84.9688V58.5C82.5625 52.1182 80.0274 45.9978 75.5148 41.4852C71.0022 36.9726 64.8818 34.4375 58.5 34.4375Z" fill="#8EC1D6"/>
</svg>
