<svg width="118" height="118" viewBox="0 0 118 118" fill="none" xmlns="http://www.w3.org/2000/svg">
<rect width="118" height="118" rx="59" fill="#263141"/>
<path d="M91.6702 72.4968C91.5904 72.4355 91.3839 72.3825 91.2982 72.3383L60.2633 56.4906V51.3416C66.1666 50.5214 69.0813 46.0221 69.0813 40.2373C69.0813 33.8318 65.1793 29 59.9224 29C54.403 29 49.7717 34.2564 49.7717 40.4794C49.7717 41.5501 50.5392 42.4196 51.466 42.4196C51.7419 42.4196 51.9988 42.3243 52.2275 42.1895C52.7706 41.8671 53.1572 41.2329 53.1572 40.4794C53.1572 36.4317 56.3479 32.8804 59.9813 32.8804C63.3772 32.8804 65.8432 35.9749 65.8432 40.2373C65.8432 44.4314 62.9092 47.5942 58.9098 47.5942C57.983 47.5942 57.3115 48.4637 57.3115 49.5344V53.3262V57.1334C57.3115 57.1708 57.2466 57.2016 57.2496 57.2391L27.4958 73.4858C23.1083 75.3119 21.6059 79.4667 22.0855 82.6379C22.5785 85.8995 24.9722 88 28.0729 88H87.1689C90.8393 88 93.7185 85.8057 94.6823 82.1266C95.6341 78.5018 94.3945 74.5941 91.6702 72.4968ZM91.4679 81.2383C90.9351 83.2757 89.3678 84.5903 87.1703 84.5903H28.0729C26.572 84.5903 25.5875 83.6285 25.3721 82.2068C25.1271 80.5836 26.0303 78.2786 28.7413 77.1396L59.5356 60.2758L89.9153 75.9035C91.3425 77.0815 91.9801 79.2844 91.4679 81.2383Z" fill="#8EC1D6"/>
</svg>
