<svg width="118" height="118" viewBox="0 0 118 118" fill="none" xmlns="http://www.w3.org/2000/svg">
<rect width="118" height="118" rx="59" fill="#263141"/>
<g clip-path="url(#clip0_113_3)">
<path d="M72.5 29.25C73.6935 29.25 74.8381 29.6978 75.682 30.4948C76.5259 31.2918 77 32.3728 77 33.5V84.5C77 85.6272 76.5259 86.7082 75.682 87.5052C74.8381 88.3022 73.6935 88.75 72.5 88.75H45.5C44.3065 88.75 43.1619 88.3022 42.318 87.5052C41.4741 86.7082 41 85.6272 41 84.5V33.5C41 32.3728 41.4741 31.2918 42.318 30.4948C43.1619 29.6978 44.3065 29.25 45.5 29.25H72.5ZM45.5 25C43.1131 25 40.8239 25.8955 39.136 27.4896C37.4482 29.0837 36.5 31.2457 36.5 33.5V84.5C36.5 86.7543 37.4482 88.9163 39.136 90.5104C40.8239 92.1045 43.1131 93 45.5 93H72.5C74.8869 93 77.1761 92.1045 78.864 90.5104C80.5518 88.9163 81.5 86.7543 81.5 84.5V33.5C81.5 31.2457 80.5518 29.0837 78.864 27.4896C77.1761 25.8955 74.8869 25 72.5 25H45.5Z" fill="#8EC1D6"/>
<path d="M59 84.5C60.1935 84.5 61.3381 84.0522 62.182 83.2552C63.0259 82.4582 63.5 81.3772 63.5 80.25C63.5 79.1228 63.0259 78.0418 62.182 77.2448C61.3381 76.4478 60.1935 76 59 76C57.8065 76 56.6619 76.4478 55.818 77.2448C54.9741 78.0418 54.5 79.1228 54.5 80.25C54.5 81.3772 54.9741 82.4582 55.818 83.2552C56.6619 84.0522 57.8065 84.5 59 84.5Z" fill="#8EC1D6"/>
</g>
<defs>
<clipPath id="clip0_113_3">
<rect width="72" height="68" fill="white" transform="translate(23 25)"/>
</clipPath>
</defs>
</svg>
