<svg width="118" height="118" viewBox="0 0 118 118" fill="none" xmlns="http://www.w3.org/2000/svg">
<rect width="118" height="118" rx="59" fill="#263141"/>
<g clip-path="url(#clip0_113_19)">
<path d="M72.9263 15.3739C73.3606 15.6859 73.6967 16.1713 73.8797 16.7507C74.0627 17.3301 74.0817 17.9693 73.9337 18.5639L65.9417 50.7499H80.6875C81.1209 50.7497 81.5448 50.9067 81.9069 51.2017C82.2691 51.4967 82.5536 51.9166 82.7254 52.4097C82.8972 52.9028 82.9487 53.4475 82.8736 53.9765C82.7985 54.5054 82.6001 54.9956 82.3028 55.3864L46.8028 102.136C46.4593 102.589 46.0022 102.884 45.506 102.974C45.0099 103.063 44.5038 102.942 44.0705 102.629C43.6371 102.317 43.302 101.831 43.1196 101.252C42.9373 100.674 42.9185 100.035 43.0664 99.4414L51.0583 67.2499H36.3125C35.8792 67.2501 35.4553 67.093 35.0931 66.798C34.731 66.5031 34.4465 66.0831 34.2747 65.59C34.1029 65.0969 34.0514 64.5522 34.1265 64.0233C34.2016 63.4943 34.4 63.0042 34.6973 62.6134L70.1973 15.8634C70.5404 15.4113 70.9967 15.1163 71.4922 15.0264C71.9877 14.9366 72.4931 15.0571 72.9263 15.3684V15.3739ZM41.4467 61.7499H54.0625C54.4098 61.7498 54.7521 61.8507 55.0622 62.0445C55.3722 62.2383 55.6412 62.5196 55.8475 62.8658C56.0538 63.2119 56.1917 63.6132 56.2501 64.0375C56.3085 64.4617 56.2857 64.897 56.1837 65.3084L50.1132 89.7449L75.5489 56.2499H62.9375C62.5903 56.25 62.2479 56.149 61.9379 55.9552C61.6279 55.7614 61.3589 55.4801 61.1525 55.134C60.9462 54.7878 60.8083 54.3865 60.7499 53.9622C60.6916 53.538 60.7143 53.1027 60.8164 52.6914L66.8869 28.2549L41.4467 61.7499Z" fill="#8EC1D6"/>
</g>
<defs>
<clipPath id="clip0_113_19">
<rect width="71" height="88" fill="white" transform="translate(23 15)"/>
</clipPath>
</defs>
</svg>

